<?xml version="1.0" encoding="UTF-8"?>
<svg width="556px" height="86px" viewBox="0 0 556 86" version="1.1" xmlns="http://www.w3.org/2000/svg" xmlns:xlink="http://www.w3.org/1999/xlink">
    <title>RR-logo-new</title>
    <g id="Style-Guide" stroke="none" stroke-width="1" fill="none" fill-rule="evenodd">
        <g id="RR-logo-new" fill-rule="nonzero">
            <path d="M540.788764,38.930817 C541.747764,33.847817 540.950764,29.596817 538.480764,26.658817 C536.080764,23.807817 531.969764,22.158817 527.221764,21.839817 C522.274244,21.5024502 517.39162,23.1180244 513.621764,26.339817 L517.411764,6.74881705 C517.869531,5.03228308 517.556241,3.20147262 516.553764,1.73481705 C515.466332,0.644317133 513.993729,0.0251057906 512.453764,0.0108170465 C508.896764,-0.189182953 505.908764,2.40181705 505.126764,6.32181705 L500.892764,29.172817 C500.878838,29.2089868 500.868782,29.2465294 500.862764,29.284817 L494.178764,64.670817 C493.73609,66.3054065 494.043161,68.0521975 495.016764,69.437817 C496.065085,70.3944084 497.452431,70.892024 498.869764,70.819817 C502.269764,70.819817 505.036764,68.238817 505.764764,64.384817 L510.140764,41.253817 C511.277764,35.238817 515.831764,31.188817 521.471764,31.188817 C524.271764,31.188817 526.365764,31.672817 527.802764,33.388817 C529.348764,35.227817 529.359764,38.278817 528.744764,41.547817 C528.744764,41.547817 525.939764,56.216817 525.933764,56.247817 C525.223764,60.004817 524.725764,64.692817 527.155764,67.723817 C528.830764,69.810817 531.693764,70.917817 535.904764,71.108817 C539.11388,71.2472978 542.327733,70.9845997 545.471764,70.326817 C542.815461,70.0166114 540.376401,68.7082487 538.648764,66.666817 C535.940764,63.530817 537.019764,58.560817 537.548764,55.795817 C538.218764,52.330817 540.352764,40.945817 540.788764,38.930817 Z M351.208764,64.116817 C350.763161,65.8293652 351.100526,67.6513545 352.129764,69.090817 C353.049344,70.1262989 354.390936,70.6859091 355.773764,70.610817 C359.304764,70.610817 362.273764,67.843817 363.005764,63.882817 L368.633764,34.326817 L373.193764,34.326817 C375.970764,34.326817 379.447764,33.426817 380.231764,29.133817 C380.585315,27.9223072 380.37685,26.6160963 379.663764,25.574817 C378.886764,24.645817 377.416764,24.167817 375.293764,24.167817 L369.557764,24.167817 L369.788764,22.797817 C370.899764,16.165817 371.699764,11.371817 383.979764,11.371817 C387.872764,11.371817 390.795764,10.026817 392.666764,7.36381705 C393.391193,6.32525754 393.916433,5.1611847 394.215764,3.93081705 C390.300985,3.14342735 386.320734,2.7265858 382.327764,2.68581705 C364.543764,2.68581705 360.846764,12.325817 360.082764,16.469817 L358.749764,24.169817 L355.349764,24.169817 C352.327414,24.2237655 349.760616,26.397601 349.209764,29.369817 C348.865107,30.6358412 349.103449,31.9896258 349.859764,33.061817 C350.743449,33.9696352 351.985992,34.4360015 353.248764,34.333817 L356.880764,34.333817 C356.880764,34.333817 351.517764,62.616817 351.208764,64.116817 Z M419.140764,24.691817 C418.826618,25.9796812 418.276678,27.198229 417.518764,28.285817 C415.560764,31.073817 412.499764,32.485817 408.424764,32.485817 C395.569764,32.485817 395.124764,37.508817 393.624764,44.428817 C393.490764,45.155817 393.193764,46.598817 393.193764,46.598817 L389.911764,63.762817 C389.148764,67.909817 386.035764,70.802817 382.341764,70.802817 C380.892352,70.8791648 379.487303,70.2900456 378.525764,69.202817 C377.449673,67.6979488 377.097938,65.7927158 377.565764,64.002817 L384.371764,26.962817 C384.963121,23.3471644 388.085073,20.6911569 391.748764,20.686817 C393.870764,20.686817 395.302764,21.197817 396.122764,22.086817 C397.064806,23.3299512 397.405565,24.9274892 397.052764,26.446817 C401.130764,22.034817 411.630764,20.134817 419.140764,24.691817 Z M422.628764,40.875817 C424.687764,34.398817 430.308764,29.889817 436.309764,29.889817 C439.890764,29.889817 442.654764,31.237817 444.298764,33.780817 C445.30515,35.6921351 445.180703,38.0017064 443.974764,39.793817 C442.94791,41.4635739 441.124979,42.4773663 439.164764,42.4688707 L422.240764,42.4688707 L422.628764,40.875817 Z M453.422764,60.315817 C456.780203,66.8639728 463.517048,70.9852868 470.875764,70.992817 C481.751764,70.992817 490.548764,65.457817 492.261764,56.539817 C493.953764,47.779817 486.329764,44.196817 480.207764,41.695817 C476.068764,39.995817 471.442764,38.215817 471.670764,34.922817 C471.887764,31.762817 473.942764,26.489817 482.610764,29.785817 C490.460764,32.768817 493.841764,33.303817 497.525764,26.963817 C494.376764,23.050817 488.680764,20.304817 481.211764,20.063817 C467.536764,19.620817 460.911764,26.594817 460.311764,35.346817 C459.692764,44.341817 467.194764,47.783817 473.349764,50.288817 C477.449764,51.959817 480.549764,53.416817 481.134764,56.288817 C481.710764,59.129817 479.485764,61.988817 476.083764,62.715817 C472.091764,63.566817 467.099764,62.222817 463.233764,57.286817 C460.404764,53.676817 457.640764,52.842817 453.870764,55.249817 C453.122764,55.726817 451.288764,56.995817 451.106764,57.112817 C445.177764,60.766817 441.097764,61.586817 434.960764,61.919817 C428.203764,62.287817 419.740764,59.366817 421.142764,48.868817 L443.068764,48.868817 C447.198764,48.868817 450.222764,47.997817 452.946764,44.577817 C455.68656,40.8321465 456.455176,35.9963834 455.011764,31.585817 C452.740764,25.057817 446.366764,21.002817 438.399764,21.002817 C424.119764,21.002817 413.499764,33.690817 410.577764,45.756817 C408.397764,54.756817 410.568764,71.638817 430.694764,70.963817 C437.293694,70.8942017 443.698544,68.7223537 448.978764,64.763817 C450.676027,63.5092807 452.176846,62.0087991 453.431764,60.311817 L453.422764,60.315817 Z M313.922764,41.043817 C315.981764,34.566817 321.602764,30.057817 327.602764,30.057817 C331.182764,30.057817 333.948764,31.404817 335.592764,33.947817 C336.59915,35.8591351 336.474703,38.1687064 335.268764,39.960817 C334.241865,41.6310255 332.418385,42.6449123 330.457764,42.6358777 L313.540764,42.6358777 L313.922764,41.043817 Z M264.932764,32.892817 L268.283764,15.127817 C268.283764,15.127817 277.422764,15.106817 280.793764,15.127817 C283.880764,15.156817 286.278764,16.093817 287.715764,17.827817 C289.090173,19.6504408 289.561509,21.9990256 288.996764,24.210817 C287.996764,29.485817 283.621764,32.896817 277.842764,32.896817 L264.932764,32.892817 Z M349.378764,56.584817 C350.688764,54.641817 351.586764,51.120817 347.659764,54.224817 L347.203764,54.619817 C341.571939,59.4978594 334.393931,62.222739 326.943764,62.310817 C319.135764,62.310817 311.036764,59.527817 312.437764,49.027817 L334.360764,49.027817 C338.490764,49.027817 341.516764,48.157817 344.236764,44.739817 C346.978157,40.9948417 347.747247,36.1584343 346.302764,31.747817 C344.027764,25.223817 337.659764,21.172817 329.692764,21.172817 C315.413764,21.172817 304.792764,33.860817 301.870764,45.923817 C300.722764,50.663817 300.842764,57.474817 304.161764,62.854817 C302.598058,63.7047586 300.860888,64.1863369 299.082764,64.262817 C296.367645,64.4331978 293.700298,63.4900393 291.695764,61.650817 C286.421764,56.425817 280.667764,47.602817 277.452764,42.502817 C286.780764,41.258817 299.273764,35.639817 301.243764,25.185817 C302.443764,18.842817 301.588764,13.869817 298.711764,10.405817 C295.459764,6.48781705 289.636764,4.46381705 281.411764,4.39681705 C275.656764,4.34781705 270.839764,4.33381705 265.069764,4.35081705 C260.560764,4.36781705 257.502764,6.87281705 256.685764,11.215817 L246.770764,63.745817 C246.209244,65.3686235 246.531858,67.1666572 247.622534,68.4930171 C248.71321,69.8193771 250.415051,70.4832617 252.115764,70.245817 C256.044764,70.228817 258.545764,67.867817 259.384764,63.418817 C260.660764,56.654817 263.297764,42.666817 263.297764,42.666817 L264.313764,42.666817 L265.771764,44.817817 C269.434764,50.217817 272.892764,55.017817 276.299764,60.144817 C278.454764,63.390817 283.865764,70.586817 292.067764,71.072817 C298.452764,71.450817 303.176764,69.406817 306.476764,65.801817 C309.734764,69.101817 314.759764,71.360817 322.218764,71.360817 C333.947764,71.360817 342.295764,66.330817 348.409764,57.976817 L349.378764,56.584817 Z" id="Shape" fill="#0A1A5C"></path>
            <path d="M213.373764,67.602817 L205.873764,31.561817 C205.675326,30.5305158 205.679742,29.4704295 205.886764,28.440817 C206.429764,25.613817 209.950764,23.340817 212.501764,23.340817 C215.011627,23.110496 217.242596,24.9351458 217.514764,27.440817 L222.022764,53.540817 L237.143764,27.640817 C238.44337,25.0370039 241.088872,23.377535 243.998764,23.340817 C245.40599,23.3692751 246.733768,23.9985865 247.646764,25.069817 C248.386258,25.9373277 248.686025,27.0965736 248.459764,28.213817 C248.280974,29.3333879 247.872405,30.4038387 247.259764,31.357817 L218.740764,80.407817 C216.623764,83.632817 213.788764,85.263817 210.310764,85.263817 L210.310764,85.263817 C207.990029,85.1975877 205.715941,84.5962976 203.665764,83.506817 L213.373764,67.602817 Z M166.505764,57.620817 C168.105778,59.5354443 170.497895,60.6072135 172.991764,60.526817 C180.765764,60.526817 185.791764,52.826817 187.168764,45.674817 C188.060764,41.055817 187.336764,36.917817 185.187764,34.313817 C183.490378,32.3336839 180.9774,31.2431049 178.371764,31.355817 C171.080764,31.355817 165.703764,38.860817 164.345764,45.923817 C163.468764,50.464817 164.298764,54.949817 166.505764,57.624817 L166.505764,57.620817 Z M114.251764,57.274817 C115.899392,59.2605682 118.379708,60.3631363 120.957764,60.255817 C128.291764,60.255817 133.745764,53.066817 135.336764,45.964817 C136.402764,41.213817 135.742764,36.769817 133.584764,34.086817 C132.012816,32.1752209 129.637902,31.1079894 127.164764,31.201817 C119.295764,31.201817 114.033764,38.701817 112.469764,45.679817 C111.440764,50.278817 112.105764,54.612817 114.251764,57.278817 L114.251764,57.274817 Z M66.9647636,42.6358777 L83.8857636,42.6358777 C85.8463846,42.6449123 87.6698648,41.6310255 88.6967636,39.960817 C89.9027032,38.1687064 90.0271504,35.8591351 89.0207636,33.947817 C87.3777636,31.404817 84.6107636,30.057817 81.0317636,30.057817 C75.0317636,30.057817 69.4107636,34.566817 67.3517636,41.043817 L66.9647636,42.6358777 Z M31.2707636,32.892817 C37.0487636,32.892817 41.4277636,29.481817 42.4237636,24.206817 C42.9885443,21.994739 42.516414,19.6458633 41.1407636,17.823817 C39.7037636,16.093817 37.3057636,15.156817 34.2187636,15.123817 C30.8477636,15.102817 21.7097636,15.123817 21.7097636,15.123817 L18.3607636,32.892817 L31.2707636,32.892817 Z M55.2977636,45.923817 C58.2197636,33.860817 68.8407636,21.172817 83.1207636,21.172817 C91.0867636,21.172817 97.4557636,25.223817 99.7307636,31.747817 C101.175247,36.1584343 100.406157,40.9948417 97.6647636,44.739817 C94.9437636,48.157817 91.9177636,49.027817 87.7877636,49.027817 L65.8647636,49.027817 C64.4647636,59.527817 72.5647636,62.310817 80.3717636,62.310817 C87.8215856,62.2225033 94.9992003,59.4976386 100.630764,54.619817 C100.852764,54.433817 101.055764,54.259817 101.249764,54.110817 C101.090016,51.3720877 101.353786,48.6251067 102.031764,45.966817 C105.204764,32.102817 116.089764,21.440817 127.840764,21.440817 C132.720764,21.440817 136.494764,23.227817 138.203764,26.740817 L139.347764,29.085817 L140.239764,26.469817 C141.139764,23.787817 143.451764,21.535817 146.239764,21.535817 C147.584883,21.4664077 148.896609,21.9691574 149.850764,22.919817 C150.999764,24.347817 150.396764,27.037817 149.912764,29.198817 L145.170764,53.466817 C144.583764,56.774817 144.326764,58.727817 145.392764,59.993817 C146.249764,61.019817 147.642764,61.509817 149.641764,61.509817 C151.501018,61.6382332 153.355289,61.1973382 154.957764,60.245817 C154.789764,59.806817 154.641764,59.379817 154.527764,59.005817 C153.364011,55.0842865 153.183704,50.9365425 154.002764,46.928817 C156.418764,34.390817 165.880764,21.698817 179.291764,21.698817 C183.414328,21.5639878 187.411152,23.1292359 190.345764,26.027817 L191.160764,26.873817 L194.789764,8.03281705 C195.552764,4.07181705 198.553764,1.30381705 202.089764,1.30381705 C203.402886,1.22959167 204.670416,1.79699735 205.489764,2.82581705 C206.449764,3.98781705 206.527764,5.76081705 206.138764,7.80281705 L195.885764,63.387817 C195.120764,67.345817 192.123764,70.112817 188.593764,70.112817 C185.477764,70.112817 183.893764,68.530817 183.749764,65.280817 L183.680764,63.671817 L182.670764,64.924817 C179.478764,68.878817 174.046764,70.658817 170.081764,70.658817 C164.738062,70.8614873 159.680962,68.241228 156.764764,63.758817 C156.644764,63.584817 156.532764,63.410817 156.418764,63.227817 C156.242764,63.442817 156.050764,63.670817 155.838764,63.902817 C153.329764,66.564817 149.755764,69.818817 143.416764,70.192817 C136.152764,70.621817 133.169764,65.646817 132.756764,63.092817 L132.556764,61.884817 L130.088764,64.410817 C125.958764,68.284817 121.412764,70.246817 116.573764,70.246817 C108.914764,70.246817 104.058764,66.128817 102.048764,58.940817 C101.970764,58.609817 101.903764,58.292817 101.834764,57.973817 C95.7207636,66.327817 87.3717636,71.357817 75.6437636,71.357817 C68.1847636,71.357817 63.1587636,69.098817 59.9007636,65.798817 C56.6007636,69.403817 51.8777636,71.447817 45.4927636,71.069817 C37.2927636,70.583817 31.8787636,63.387817 29.7247636,60.141817 C26.3177636,55.011817 22.8597636,50.213817 19.1967636,44.814817 L17.7407636,42.667817 L16.7257636,42.667817 C16.7257636,42.667817 14.0877636,56.655817 12.8127636,63.419817 C11.9727636,67.868817 9.47176359,70.229817 5.54276359,70.246817 C3.86925074,70.3707502 2.22836308,69.7376634 1.07176359,68.521817 C0.071470427,67.1446318 -0.249991592,65.3879927 0.197763592,63.745817 L10.1087636,11.218817 C10.9267636,6.87581705 13.9837636,4.37081705 18.4937636,4.35381705 C24.2637636,4.33681705 29.0807636,4.35381705 34.8347636,4.39981705 C43.0637636,4.46681705 48.8877636,6.49081705 52.1397636,10.408817 C55.0167636,13.872817 55.8697636,18.845817 54.6717636,25.188817 C52.7017636,35.642817 40.2077636,41.261817 30.8807636,42.502817 C34.0947636,47.602817 39.8487636,56.422817 45.1237636,61.647817 C47.1276862,63.4873896 49.7948864,64.4306237 52.5097636,64.259817 C54.2879322,64.1836174 56.0251646,63.7020219 57.5887636,62.851817 C54.2707636,57.474817 54.1497636,50.663817 55.2977636,45.923817 Z" id="Ready_Cut_Y" fill="#F26F24"></path>
            <path d="M553.251764,64.991817 C553.251764,64.154817 552.681764,63.885817 551.711764,63.885817 L550.292764,63.885817 L550.292764,67.535817 L551.108764,67.535817 L551.108764,66.002817 L551.481764,66.002817 L552.370764,67.532817 L553.301764,67.532817 L552.354764,65.942817 C552.605597,65.9513502 552.847994,65.8516394 553.020221,65.669079 C553.192448,65.4865186 553.277882,65.2387289 553.254764,64.988817 M551.824764,65.378817 L551.111764,65.378817 L551.111764,64.502817 L551.676764,64.502817 C551.976764,64.502817 552.403764,64.531817 552.403764,64.902817 C552.403764,65.302817 552.181764,65.374817 551.824764,65.374817 M551.780764,62.3028169 C549.898155,62.3022651 548.371501,63.8278756 548.370764,65.7104839 C548.370028,67.5930922 549.895489,69.1198961 551.778098,69.1208169 C553.660706,69.1217368 555.187659,67.5964252 555.188764,65.713817 C555.186563,63.8320565 553.662521,62.306673 551.780764,62.3028169 M551.780764,68.627817 C550.171406,68.627817 548.866764,67.3231748 548.866764,65.713817 C548.866764,64.1044593 550.171406,62.799817 551.780764,62.799817 C553.390121,62.799817 554.694764,64.1044593 554.694764,65.713817 C554.69311,67.3224894 553.389436,68.6261635 551.780764,68.627817" id="Shape" fill="#1E2C69"></path>
        </g>
    </g>
</svg>